#!OML:ASF F:\VICON\USERDATA\INSTALL\Justin_Nancy\Justin_Nancy.ASF
:FULLY-SPECIFIED
:DEGREES
98
root -9.19624 16.471 -7.11003 -2.18516 1.6458 4.4546
lowerback 6.88713 -1.16047 -6.04303
upperback 0.702963 -1.94074 1.9812
thorax -2.86468 -0.888423 5.64535
lowerneck -16.3477 -2.71638 -9.78701
upperneck 23.48 -1.99765 3.41666
head 10.371 -1.39307 2.58313
rclavicle -9.64106e-015 -3.18055e-015
rhumerus -43.8342 -7.17257 -76.6066
rradius 49.1318
rwrist -0.00669595
rhand -15.689 10.8623
rfingers 7.12502
rthumb 10.5002 -18.8554
lclavicle -9.64106e-015 -3.18055e-015
lhumerus -32.9149 4.89778 83.4746
lradius 41.1314
lwrist 4.51419
lhand -17.6482 28.335
lfingers 7.12502
lthumb 8.60981 58.1394
rfemur -28.8417 7.34912 0.588913
rtibia 15.7339
rfoot -6.51767 1.59593
rtoes -16.4292
lfemur 5.94739 -10.5381 -33.9181
ltibia 36.0781
lfoot -25.4556 1.64703
ltoes -1.18475
99
root -9.20577 16.4282 -6.87102 -2.24504 2.1434 4.03684
lowerback 6.95322 -1.10906 -5.66073
upperback 0.842614 -1.84067 2.09277
thorax -2.77861 -0.849063 5.53595
lowerneck -16.6747 -2.67115 -9.63738
upperneck 23.4519 -1.89695 3.2655
head 10.4127 -1.34759 2.51642
rclavicle -1.60519e-014 7.95139e-016
rhumerus -43.7706 -7.34397 -76.4132
rradius 48.8191
rwrist -0.102071
rhand -15.6955 10.7346
rfingers 7.12502
rthumb 10.4939 -18.9834
lclavicle -1.60519e-014 7.95139e-016
lhumerus -32.7363 5.24591 83.365
lradius 41.2508
lwrist 4.55117
lhand -17.837 28.548
lfingers 7.12502
lthumb 8.42761 58.3599
rfemur -28.6813 7.50154 0.722128
rtibia 16.5345
rfoot -4.80253 3.40323
rtoes -20.591
lfemur 6.08838 -10.5406 -33.5573
ltibia 37.7061
lfoot -25.2006 1.47705
ltoes -3.5517
100
root -9.22077 16.3892 -6.64747 -2.17118 2.79805 3.67543
lowerback 7.0538 -1.08041 -5.4154
upperback 0.889022 -1.78399 2.22108
thorax -2.79769 -0.823314 5.52896
lowerneck -16.9243 -2.64008 -9.57833
upperneck 23.5055 -1.81774 3.1814
head 10.473 -1.31475 2.48742
rclavicle 2.08227e-014 -4.05521e-014
rhumerus -43.686 -7.45658 -76.223
rradius 48.4404
rwrist -0.4546
rhand -15.7851 10.6002
rfingers 7.12502
rthumb 10.4074 -19.1222
lclavicle 2.08227e-014 -4.05521e-014
lhumerus -32.6447 5.50294 83.3674
lradius 41.4022
lwrist 4.5152
lhand -18.5008 28.0763
lfingers 7.12502
lthumb 7.78695 57.9129
rfemur -28.961 7.38385 0.826555
rtibia 18.0373
rfoot -1.32407 5.21885
rtoes -21.6148
lfemur 5.75272 -10.564 -33.1282
ltibia 39.5832
lfoot -24.6012 1.25027
ltoes -7.22977
101
root -9.22358 16.3585 -6.42514 -2.25674 3.49503 3.38386
lowerback 7.4988 -1.09125 -5.16477
upperback 0.83519 -1.79508 2.37397
thorax -3.10396 -0.818953 5.56488
lowerneck -16.9592 -2.52138 -9.47023
upperneck 23.5471 -1.60235 2.90517
head 10.4774 -1.23943 2.40057
rclavicle 8.59744e-015 3.18055e-015
rhumerus -43.6384 -7.34277 -75.9835
rradius 47.9059
rwrist -0.748531
rhand -15.9868 10.8676
rfingers 7.12502
rthumb 10.2129 -18.8645
lclavicle 8.59744e-015 3.18055e-015
lhumerus -32.9583 5.88318 83.3928
lradius 41.6845
lwrist 4.60089
lhand -19.7566 25.4711
lfingers 7.12502
lthumb 6.57477 55.349
rfemur -29.1109 6.72862 1.07412
rtibia 19.9998
rfoot 2.94546 7.16127
rtoes -12.9292
lfemur 5.29698 -10.7063 -32.8719
ltibia 41.8045
lfoot -23.6972 0.0982081
ltoes -4.54912
102
root -9.22024 16.3369 -6.20168 -2.3503 4.31018 3.01527
lowerback 7.90589 -1.14327 -4.73674
upperback 0.811679 -1.84049 2.50983
thorax -3.35908 -0.837038 5.48352
lowerneck -17.1236 -2.35448 -9.23655
upperneck 23.6869 -1.29013 2.44035
head 10.5353 -1.13313 2.2393
rclavicle -1.98785e-016 -6.36111e-015
rhumerus -43.2749 -7.50929 -75.7688
rradius 47.0409
rwrist -0.783353
rhand -16.3274 10.936
rfingers 7.12502
rthumb 9.88428 -18.8119
lclavicle -1.98785e-016 -6.36111e-015
lhumerus -33.2262 6.48088 83.3529
lradius 41.7907
lwrist 4.49349
lhand -20.1515 24.9347
lfingers 7.12502
lthumb 6.1936 54.8242
rfemur -29.2049 5.90635 1.4607
rtibia 22.3631
rfoot 2.19701 7.92016
rtoes -16.9636
lfemur 4.62868 -10.8702 -32.548
ltibia 44.3751
lfoot -23.0759 -1.34004
ltoes 2.12782
